<svg xmlns="http://www.w3.org/2000/svg" width="32" height="32" viewBox="0 0 24 24" fill="none" stroke="#6366f1" stroke-width="2" stroke-linecap="round" stroke-linejoin="round">
    <path d="M4.5 16.5c-1.5 1.26-2 5-2 5s3.74-.5 5-2c.71-.84.7-2.13-.09-2.91a2.18 2.18 0 0 0-2.91-.09z"></path>
    <path d="m12 15-3-3a22 22 0 0 1 2-3.95A12.88 12.88 0 0 1 22 2s-7 2-9 6a22 22 0 0 1-4 2"></path>
    <path d="M9 12H4s.55-3.03 2-4c1.62-1.08 5 0 5 0"></path>
    <path d="M12 15v5c1.08 1.45 4 2 4 2s-1.08-3.38 0-5c.9-.71 2-1 2-1"></path>
</svg>
